<svg xmlns="http://www.w3.org/2000/svg" viewBox="0 0 740.53 307.62"><defs><style>.cls-1{fill:#055a94}.cls-2{fill:#045a94}.cls-3{fill:#055a95}.cls-4{fill:#065a95}</style></defs><g id="Layer_2" data-name="Layer 2"><g id="Layer_1-2" data-name="Layer 1"><path class="cls-1" d="M583.71 71c5.78-11 15.3-18.73 28.64-19.83 12.36-1 24.88-.21 38.94-.21-4.13-3.92-7.15-7.33-10.7-10.06-14-10.76-30.51-15.14-47.57-18-29.07-4.89-57.41 0-85.56 6.53-35.41 8.27-69.59 20.38-103.25 34a179.49 179.49 0 0 1-81.9 12.79c8.16-3.83 16.27-7.74 24.48-11.47 48.22-21.9 97.39-41.25 148.9-54.09C521.93 4 548.44-.92 575.64.14c23.68.93 46.6 5.58 67.75 16.82 16.74 8.91 29.45 21.55 35.67 40a7.08 7.08 0 0 0 3.35 3.79c34.2 15.66 44.8 43 41.41 79.06-.84 8.89-2.72 17.69-4.12 26.53l1.15.84c2.86-4.24 6.12-8.27 8.47-12.78 2.14-4.08 3.2-8.71 4.95-13 .41-1 1.67-1.71 2.54-2.55.87.9 2.16 1.66 2.53 2.74 4.48 13.33-4.24 38.18-16 45.77a15.61 15.61 0 0 1-5.41 2.45 20.82 20.82 0 0 0-10.15 4.46 23 23 0 0 0-8.23 11.66c-4.93 15-13.6 27.47-25.23 38.34-6.22 5.8-10.89 13.4-15.6 20.62-2.69 4.14-5.36 5.76-10 4a38.21 38.21 0 0 0-5.95-1.18c-8.29 21.82-26.25 31.95-46.25 39.92-1.24-5.9-2-11.69-3.7-17.16-3.69-11.66-10.78-21.28-19.24-30-8.25-8.46-9.31-18.57-2.71-27.25 16.73 12.17 29.89 27.22 38.83 47.75l15.47-16.72-21.28-4.46v-26.74a21.87 21.87 0 0 1 3.74 1.51c10.65 6.95 23 8.41 35 10.57a4.77 4.77 0 0 0 3.94-1.5A149 149 0 0 1 665 222.18c9.22-8.87 13.75-20.6 16.57-33 .51-2.26 2.07-5 4-6.1 5.18-2.89 7.89-7 9.54-12.56 5.29-17.84 9.47-35.74 6.55-54.54-2.09-13.43-8.6-23.88-20.48-30.92a101.67 101.67 0 0 0-47.44-14c-16.65-.83-33.39-.12-50.03-.06Zm-259.6 213.76c-23.86-.08-39.63-18.72-35.88-42.42 4-25.2 24.08-43.56 49.31-45 26.08-1.52 43.41 19.51 37.88 46a52.63 52.63 0 0 1-51.31 41.42Zm4-22.71c14.92 0 27-15 23.93-29.82-1.32-6.38-5.15-10.22-11.53-11.58-14.49-3.09-27.94 8.27-28.74 24.32-.5 10.33 5.96 17.09 16.35 17.08Z"/><path class="cls-2" d="M438.35 145.68c0-30.9 28.83-55.56 59.22-50.66a34.19 34.19 0 0 1 29.21 33c1.13 31.66-28.08 58.33-58.32 53.27-18.98-3.15-30.12-16.29-30.11-35.61Zm24.06-3c-.05 10.65 6.14 16.69 16.81 16.39 14-.4 24.45-12.82 23.48-28a14 14 0 0 0-11.41-13.32c-14.97-3.39-28.81 8.55-28.88 24.9Z"/><path class="cls-1" d="M0 179.78C5 151.69 9.84 124 14.76 96.15c13.65 0 27-.44 40.25.16 8.3.37 15.08 4.53 18 12.89s.41 15.71-5.39 22.07a34.92 34.92 0 0 1-3.71 3.09c13 15 8.39 34.72-9.43 42.39-3.33 1.43-7 2.81-10.52 2.89-14.48.36-28.96.14-43.96.14Zm29.08-34c-.87 5.07-1.63 9.47-2.49 14.52a60.67 60.67 0 0 0 6.64 0c3.58-.4 7.69-.17 10.51-1.93 2.26-1.37 3.87-5.37 3.93-8.22.09-3.63-3.64-4.24-6.76-4.32-3.8-.11-7.61-.03-11.83-.03Zm5.29-29.89-2 11.59c4.67-.26 9 .24 12.7-1 2.2-.71 4.67-4 4.93-6.38.36-3.31-3-4.22-6-4.23Z"/><path class="cls-2" d="m269 254.23 12 28.36c-16.6 2.31-27.5-1.95-32.88-18.22-1.46-4.41-2.4-10.1-10-6.72l-4.55 25.22h-23.09c4.93-28 9.82-55.7 14.89-84.46 14.06.54 28.12-.12 41.79 1.9 18.09 2.68 25.37 21.42 15.46 38.45-3.22 5.54-8.62 9.84-13.62 15.47Zm-27.14-18.32c1.53.08 2.5.16 3.47.16 2.81 0 5.9.72 8.36-.21 3-1.12 6.29-3.11 7.87-5.69 3-4.93.18-9.2-5.57-9.39-3.76-.13-7.53 0-11.42 0-.93 5.14-1.77 9.85-2.72 15.13Zm255.41-10.05c10.26-8.68 19.43-16.61 28.84-24.24a12.81 12.81 0 0 1 7-2.59c8-.32 15.94-.12 25.4-.12l-42.84 36.64c8.93 15.78 17.75 31.36 26.79 47.35-6 0-11.33.48-16.56-.11-7.77-.88-13.49-5.3-17.29-12.14-3.54-6.38-7.06-12.77-10.74-19.44-3.69 2-6.19 4.2-6.74 8.64-.95 7.57-2.6 15.06-4 22.92h-23c4.89-27.76 9.77-55.52 14.7-83.56h23l-4.56 26.65Z"/><path class="cls-3" d="m467.86 221.86-23.5 6c-10.77-13.61-29.91-7.34-36.21 5.22-4.91 9.81-4.22 20.13 2.12 25.33S429 263.1 436.51 256c3.71-3.48 6.72-3.59 10.94-2.16 4.86 1.66 9.9 2.8 14.9 4.18-10.72 21.54-41.48 34.06-63.66 22.21-13.41-7.16-19.71-21.23-17.2-38.73 4.14-28.88 34.15-49.85 61.38-42.84 12.19 3.16 20.37 10.72 24.99 23.2Z"/><path class="cls-4" d="M109.89 96.45c-2.3 13.21-4.57 26.13-6.82 39.06-.57 3.28-1.28 6.55-1.58 9.85-.48 5.21-.85 10.58 4.9 13.5 5.36 2.71 14.26 1.52 17.91-3.42a39.28 39.28 0 0 0 6.18-13.83c2.16-8.88 3.24-18 5-27C138 102 148 95 161.64 96.51c-1 5.84-2 11.67-3 17.48-2 11.3-3.55 22.73-6.25 33.87-5.73 23.67-26.74 37.46-49.92 33.4-16.58-2.89-26-14.14-24.43-30.95a314.22 314.22 0 0 1 6.31-37.87c2.39-11.12 12.51-17.17 25.54-15.99Z"/><path class="cls-3" d="M344.32 96a198665 198665 0 0 0 18.74 83.74c-5.39 0-10.63.8-15.46-.28-3.36-.75-7.68-3.47-8.85-6.39-2.33-5.81-6.16-5.79-11-5.59-5.65.23-11.33.21-17 0-2.92-.11-4.89.74-5.7 3.53-2.36 8.12-7.86 10.36-15.81 9.26-4.39-.61-8.93-.11-14.33-.11l4.48-7.78c11.12-19.31 22.16-38.66 33.36-57.93 6.96-11.88 17.39-17.9 31.57-18.45Zm-15.78 31.66-10.2 19h13.73c-1.13-6.04-2.2-11.84-3.53-19.01Z"/><path class="cls-4" d="M191 117.71c-.73 4.26-1.38 8-2.1 12.15h29.26c-.54 8.47-3.75 15.52-11.26 18.35-6.63 2.49-14.15 2.62-21.95 3.9-1.33 7.46-3 15.75-4.22 24.11-.47 3.25-1.71 4.09-4.79 4-6.12-.22-12.26-.07-19.06-.07l14.76-83.81h61.14c-1.25 7.17-2.44 14-3.72 21.39Z"/><path class="cls-3" d="M261.15 117.72c-.73 4.31-1.33 7.88-2 12h29.26c-.6 8.55-3.73 15.6-11.26 18.41-6.64 2.48-14.14 2.66-22 4-1.52 8.46-3.23 17.92-5 27.67h-23c4.9-27.8 9.78-55.53 14.7-83.48h61.12l-3.71 21.4Z"/><path d="M397.2 158.32h37.41c-.25 11.73-8.29 21.17-19.16 21.55-14.78.52-29.6.13-45.22.13 4.94-28 9.82-55.75 14.73-83.68H408Z" style="fill:#065b95"/><path class="cls-3" d="M564.73 119.89c3.87.88 6.18 1.19 8.34 2 7.6 2.67 11.45 9.18 10.65 17.68-.72 7.53-6.3 13.23-14.21 14.5-8.29 1.34-14.82-1.83-17.74-9.4-4.52-11.71-2.95-23.38 2.4-34.31 3-6.18 7.52-11.67 11.65-17.25.83-1.13 3-1.29 4.52-1.9.22 1.68.94 3.48.57 5-1.91 7.79-4.04 15.57-6.18 23.68Z"/><path d="M616.61 196.58c-4.06-8.15-6.89-16.94-18.91-16.55 1.45-4.32 3.3-7.67 3.5-11.12.18-3.19-1.41-6.48-2.55-11.07 7.3 8.07 13.83 15.26 20.29 22.51a3 3 0 0 1 .6 2.28c-.9 4.66-1.94 9.3-2.93 13.95Z" style="fill:#0b5d96"/></g></g></svg>